<mxfile host="app.diagrams.net" modified="2023-02-16T09:47:12.907Z" agent="5.0 (Macintosh; Intel Mac OS X 10_15_7) AppleWebKit/537.36 (KHTML, like Gecko) Chrome/109.0.0.0 Safari/537.36 Edg/109.0.1518.78" etag="hP2tqBSQW5LKntGDLsEP" version="20.8.20" type="github">
  <diagram name="第 1 页" id="tkb67pnNabqGq0eAvZd-">
    <mxGraphModel dx="1434" dy="771" grid="0" gridSize="10" guides="1" tooltips="1" connect="1" arrows="1" fold="1" page="1" pageScale="1" pageWidth="2339" pageHeight="3300" math="0" shadow="0">
      <root>
        <mxCell id="0" />
        <mxCell id="1" parent="0" />
      </root>
    </mxGraphModel>
  </diagram>
</mxfile>
